# xmcd
#
# Track frame offsets: 
#        150
#        17404
#        35205
#        54579
#        72515
#        88429
#        103762
#        120379
#        137439
#        153834
#
# Disc length: 2299 seconds
#
# Revision: 0
# Processed by: cddbd v1.5.2PL0 Copyright (c) Steve Scherf et al.
# Submitted via: ExactAudioCopy v0.99pb4
#
DISCID=8408f90a
DTITLE=สาลี่ ขนิษฐา - แซบจี๊ด แซบจ๊าด
DYEAR=2008
DGENRE=Country
TTITLE0=แซบจี๊ด  แซบจ๊าด
TTITLE1=เรียกเมียได้ไง
TTITLE2=อย่าไปคิด
TTITLE3=คิดถึงฉันจริงหรือเปล่า
TTITLE4=หลอกเราให้รัก
TTITLE5=จริงหรือเปล่า
TTITLE6=บ้านน้อยคอยเก้อ
TTITLE7=เดี๋ยวปั๋งหงาย
TTITLE8=รอรักที่เว็บไซต์
TTITLE9=สาวนครฯวอนรัก
EXTD=
EXTT0=
EXTT1=
EXTT2=
EXTT3=
EXTT4=
EXTT5=
EXTT6=
EXTT7=
EXTT8=
EXTT9=
PLAYORDER=
